<?xml version="1.0" encoding="UTF-8" standalone="no"?>
<!-- Created with Inkscape (http://www.inkscape.org/) -->

<svg
   width="32.679165mm"
   height="23.683332mm"
   viewBox="0 0 32.679165 23.683333"
   version="1.1"
   id="svg5"
   inkscape:version="1.1.1 (3bf5ae0d25, 2021-09-20)"
   sodipodi:docname="clanms_logo.svg"
   xmlns:inkscape="http://www.inkscape.org/namespaces/inkscape"
   xmlns:sodipodi="http://sodipodi.sourceforge.net/DTD/sodipodi-0.dtd"
   xmlns="http://www.w3.org/2000/svg"
   xmlns:svg="http://www.w3.org/2000/svg">
  <sodipodi:namedview
     id="namedview7"
     pagecolor="#ffffff"
     bordercolor="#666666"
     borderopacity="1.0"
     inkscape:pageshadow="2"
     inkscape:pageopacity="0"
     inkscape:pagecheckerboard="false"
     inkscape:document-units="mm"
     showgrid="false"
     inkscape:zoom="5.9366442"
     inkscape:cx="69.062586"
     inkscape:cy="51.038935"
     inkscape:window-width="1920"
     inkscape:window-height="1011"
     inkscape:window-x="1680"
     inkscape:window-y="32"
     inkscape:window-maximized="1"
     inkscape:current-layer="layer1"
     fit-margin-top="0.2"
     fit-margin-left="0.2"
     fit-margin-right="0.2"
     fit-margin-bottom="0.2"
     showborder="true"
     lock-margins="true" />
  <defs
     id="defs2" />
  <g
     inkscape:label="Ebene 1"
     inkscape:groupmode="layer"
     id="layer1"
     transform="translate(-32.007115,-59.988342)">
    <path
       style="fill:#000000;stroke-width:0.264583"
       d="m 32.736282,82.942514 c -0.47975,-0.47976 -0.529167,-0.88195 -0.529167,-4.30676 0,-4.61518 0.146844,-4.95366 2.149064,-4.95366 1.933418,0 2.348853,0.30582 2.348853,1.7291 0,1.08368 -0.05467,1.18131 -0.661459,1.18131 -0.581803,0 -0.661458,-0.11353 -0.661458,-0.9428 0,-0.9043 -0.03512,-0.93942 -0.859896,-0.8599 l -0.859896,0.0829 v 3.70417 3.70417 l 0.859896,0.0829 c 0.842661,0.0812 0.859896,0.0614 0.859896,-0.99219 0,-0.97038 0.06443,-1.0751 0.661458,-1.0751 0.616736,0 0.661459,0.0888 0.661459,1.31361 0,1.54968 -0.373699,1.86139 -2.231565,1.86139 -0.855241,0 -1.362551,-0.15453 -1.737185,-0.52916 z m 5.468055,0.35277 c -0.09701,-0.097 -0.176389,-2.41873 -0.176389,-5.15937 v -4.98299 h 0.661459 0.661458 v 5.15938 c 0,4.82664 -0.03128,5.15937 -0.485069,5.15937 -0.266789,0 -0.564445,-0.0794 -0.661459,-0.17639 z m 2.971152,-0.38023 c -0.427466,-0.42747 -0.501707,-0.9041 -0.501707,-3.22096 0,-3.58262 0.180896,-3.85928 2.514674,-3.84581 l 1.718659,0.01 v 3.76407 3.76407 l -1.614959,0.0152 c -1.246607,0.0117 -1.729393,-0.0992 -2.116667,-0.48649 z m 2.352024,-3.36447 0.07561,-2.73047 -0.737064,0.0846 -0.737065,0.0846 -0.07711,2.36031 c -0.09056,2.77201 0.0047,3.1295 0.803527,3.01606 0.56916,-0.0808 0.599961,-0.20984 0.672102,-2.81517 z m 2.967102,0.0846 v -3.83646 h 0.661459 c 0.363802,0 0.661458,0.14288 0.661458,0.3175 0,0.24695 0.07056,0.24695 0.3175,0 0.449533,-0.44953 1.685107,-0.39376 2.177143,0.0983 0.335097,0.3351 0.415774,1.07952 0.415774,3.83646 v 3.42068 H 50.074634 49.42132 l -0.07429,-3.24114 -0.07429,-3.24115 h -0.661458 -0.661458 l -0.07429,3.24115 -0.07429,3.24114 h -0.653315 -0.653315 z m 5.820834,-1.0759 v -4.91237 l 0.721018,0.0837 c 0.671261,0.0779 0.769221,0.25893 1.419481,2.62236 0.38415,1.39625 0.75722,2.70594 0.82904,2.91041 0.1187,0.33791 0.76215,-1.5485 1.52025,-4.45686 0.26228,-1.00621 0.37615,-1.12448 1.08263,-1.12448 h 0.78952 l -0.0721,4.82864 c -0.0691,4.62822 -0.0941,4.82865 -0.60128,4.82865 -0.49373,0 -0.53802,-0.22049 -0.66146,-3.29265 l -0.13229,-3.29265 -0.34287,1.30827 c -0.91287,3.48314 -0.84433,3.3303 -1.45433,3.24299 -0.48378,-0.0692 -0.68499,-0.46835 -1.24213,-2.46388 l -0.66483,-2.38125 -0.0738,3.50573 c -0.06922,3.28716 -0.106337,3.50573 -0.595313,3.50573 -0.500201,0 -0.521486,-0.2005 -0.521486,-4.91236 z m 8.202079,4.3832 c -0.32758,-0.32759 -0.52916,-0.88195 -0.52916,-1.45521 0,-0.80497 0.0843,-0.92604 0.64469,-0.92604 0.53395,0 0.65894,0.1477 0.72761,0.85989 0.0733,0.76063 0.17454,0.8599 0.87666,0.8599 h 0.79375 v -1.5875 -1.5875 l -1.27521,-0.1465 c -0.70136,-0.0806 -1.38414,-0.3187 -1.5173,-0.52917 -0.13315,-0.21047 -0.24392,-1.17783 -0.24615,-2.14971 -0.005,-2.23509 0.30944,-2.59858 2.2488,-2.59858 1.5967,0 2.24506,0.55187 2.24506,1.91095 0,0.60214 -0.1163,0.73488 -0.64388,0.73488 -0.50573,0 -0.66185,-0.15611 -0.7276,-0.7276 -0.0706,-0.61346 -0.20825,-0.72761 -0.87747,-0.72761 -0.78574,0 -0.79375,0.0147 -0.79375,1.45521 v 1.45521 l 1.2752,0.1465 c 0.70136,0.0806 1.38414,0.3187 1.5173,0.52917 0.13316,0.21046 0.24393,1.18634 0.24615,2.1686 0.005,2.24756 -0.46587,2.84427 -2.2449,2.84427 -0.83785,0 -1.34742,-0.15679 -1.7198,-0.52916 z m -21.694729,-11.4432 c 6.06e-4,-0.18191 0.297766,-2.65245 0.660358,-5.49011 0.362591,-2.83765 0.659752,-5.308202 0.660357,-5.490103 8.18e-4,-0.245695 0.797845,-0.330729 3.09994,-0.330729 h 3.09884 l 1.134494,1.113422 1.134494,1.11342 1.134494,-1.11342 1.134493,-1.113422 h 3.098839 c 2.3021,0 3.09912,0.08503 3.09994,0.330729 5.3e-4,0.181901 0.29777,2.652453 0.66036,5.490103 0.36259,2.83766 0.65975,5.3082 0.66036,5.49011 7.9e-4,0.23955 -0.63938,0.33072 -2.32229,0.33072 h -2.32339 l -1.570931,-1.5875 -1.570934,-1.5875 h -2.000941 -2.00094 l -1.570935,1.5875 -1.570935,1.5875 h -2.323387 c -1.682908,0 -2.323083,-0.0912 -2.322286,-0.33072 z m 5.486704,-2.57969 1.732476,-1.5875 h 2.569303 2.569303 l 1.732476,1.5875 c 1.527867,1.40001 1.860497,1.5875 2.816387,1.5875 1.05106,0 1.08324,-0.0261 1.06163,-0.8599 -0.0123,-0.47294 -0.22098,-2.40771 -0.46384,-4.29948 l -0.44157,-3.43958 -2.38042,-0.07925 -2.380424,-0.07925 -1.249127,1.40216 -1.24913,1.40216 -1.264413,-1.40518 -1.264414,-1.405174 -2.380424,0.08226 -2.380424,0.08226 -0.441564,3.439584 c -0.24286,1.89177 -0.451591,3.82654 -0.463847,4.29948 -0.02161,0.83383 0.01057,0.8599 1.061631,0.8599 0.955898,0 1.28853,-0.18749 2.816391,-1.5875 z m 8.796127,-2.51784 c -0.302189,-0.36412 -0.233762,-0.54195 0.485158,-1.26087 0.74825,-0.74824 0.87953,-0.7944 1.23846,-0.43547 0.35893,0.35893 0.3075,0.49258 -0.48516,1.26086 -0.79618,0.77169 -0.92255,0.81612 -1.238458,0.43548 z"
       id="path21" />
  </g>
</svg>
